# xmcd
#
# Track frame offsets: 
#        151
#        13829
#        30877
#        47533
#        59743
#        76442
#        92909
#        105818
#        115796
#        131684
#        147292
#        157084
#
# Disc length: 2321 seconds
#
# Revision: 0
# Processed by: cddbd v1.5.2PL0 Copyright (c) Steve Scherf et al.
# Submitted via: ExactAudioCopy v0.99pb3
#
DISCID=97090f0c
DTITLE=Tammy Fassaert - Corner Of My Eye
DYEAR=2000
DGENRE=Trad, Bluegrass
TTITLE0=Angel Eyes
TTITLE1=Corner Of My Eye
TTITLE2=Proud Ponderosa
TTITLE3=Lonely Violet
TTITLE4=Budd's Back
TTITLE5=Set Me Free
TTITLE6=Dancing To The Change
TTITLE7=Gonna Row My Boat
TTITLE8=Trail Of Diamonds
TTITLE9=Moods Of A Fool
TTITLE10=Providence Ferry
TTITLE11=Leaf On The Vine
EXTD=
EXTT0=
EXTT1=
EXTT2=
EXTT3=
EXTT4=
EXTT5=
EXTT6=
EXTT7=
EXTT8=
EXTT9=
EXTT10=
EXTT11=
PLAYORDER=
